# xmcd CD database file
#
# Track frame offsets:
#	150
#	12576
#	22903
#	32982
#	43174
#	53333
#	63386
#	74513
#	83684
#	93753
#	106755
#	118875
#	141061
#	149772
#	164069
#	176759
#	190676
#	200694
#	211460
#	225277
#	236656
#	248331
#	257361
#	266380
#	279826
#	291887
#	303746
#	316934
#
# Disc length: 4407 seconds
#
# Revision: 2
# Processed by: cddbd v1.5.2PL0 Copyright (c) Steve Scherf et al.
# Submitted via: CDex 1.51
#
DISCID=8d11351c
DTITLE=Patsy Cline - The Patsy Cline Collection, Disc 3  -  Heartaches
DYEAR=1991
DGENRE=Country
TTITLE0=Crazy
TTITLE1=Who Can I Count On
TTITLE2=Seven Lonely Days
TTITLE3=I Love You So Much It Hurts
TTITLE4=Foolin' 'Round
TTITLE5=Have You Ever Been Lonely (Have You Ever Been Blue)
TTITLE6=South Of The Border (Down Mexico Way)
TTITLE7=Walkin' After Midnight
TTITLE8=Strange
TTITLE9=You're Stronger Than Me
TTITLE10=Come On In (Make Yourself At Home)
TTITLE11=A Poor Man's Roses (Or A Rich Man's Gold)
TTITLE12=Bill Bailey Won't You Please Come Home
TTITLE13=She's Got You
TTITLE14=You Made Me Love You (I Did'nt Want To Do It)
TTITLE15=You Belong To Me
TTITLE16=Heartaches
TTITLE17=Your Cheatin' Heart
TTITLE18=That's My Desire
TTITLE19=Half As Much
TTITLE20=Lonely Street
TTITLE21=Anytime
TTITLE22=You Were Only Fooling (While I Was Falling In Love)
TTITLE23=I Can't Help It (If I'm Still In Love With You)
TTITLE24=You're Stronger Than Me
TTITLE25=When I Get Thru With You (You'll Love Me Too)
TTITLE26=Imagine That
TTITLE27=So Wrong
EXTD=YEAR: 1991
EXTT0=
EXTT1=
EXTT2=
EXTT3=
EXTT4=
EXTT5=
EXTT6=
EXTT7=
EXTT8=
EXTT9=
EXTT10=
EXTT11=
EXTT12=
EXTT13=
EXTT14=
EXTT15=
EXTT16=
EXTT17=
EXTT18=
EXTT19=
EXTT20=
EXTT21=
EXTT22=
EXTT23=
EXTT24=
EXTT25=
EXTT26=
EXTT27=
PLAYORDER=
